<?xml version="1.0" encoding="UTF-8"?>
<!-- Generated by Pixelmator Pro 3.4.1 -->
<svg width="800" height="800" viewBox="0 0 800 800" xmlns="http://www.w3.org/2000/svg">
    <path id="Path" fill="#ffffff" fill-rule="evenodd" stroke="none" d="M 100 133.333313 C 100 114.924011 114.924004 100 133.333328 100 L 266.666656 100 C 285.076019 100 300 114.924011 300 133.333313 C 300 151.742676 285.076019 166.666687 266.666656 166.666687 L 213.806992 166.666687 L 323.570343 276.429626 C 336.58667 289.447327 336.58667 310.552673 323.570343 323.570343 C 310.552673 336.58667 289.447327 336.58667 276.429657 323.570343 L 166.666672 213.807007 L 166.666672 266.666687 C 166.666672 285.075989 151.742661 300 133.333328 300 C 114.924004 300 100 285.075989 100 266.666687 L 100 133.333313 Z M 533.333313 100 L 666.666687 100 C 685.07666 100 700 114.924011 700 133.333313 L 700 266.666687 C 700 285.075989 685.07666 300 666.666687 300 C 648.256714 300 633.333313 285.075989 633.333313 266.666687 L 633.333313 213.807007 L 523.570007 323.570343 C 510.553314 336.58667 489.446686 336.58667 476.429993 323.570343 C 463.41333 310.552673 463.41333 289.447327 476.429993 276.429626 L 586.193359 166.666687 L 533.333313 166.666687 C 514.92334 166.666687 500 151.742676 500 133.333313 C 500 114.924011 514.92334 100 533.333313 100 Z M 323.570343 476.429993 C 336.58667 489.446686 336.58667 510.553314 323.570343 523.570007 L 213.806992 633.333313 L 266.666656 633.333313 C 285.076019 633.333313 300 648.256714 300 666.666687 C 300 685.07666 285.076019 700 266.666656 700 L 133.333328 700 C 114.924004 700 100 685.07666 100 666.666687 L 100 533.333374 C 100 514.92334 114.924004 500 133.333328 500 C 151.742661 500 166.666672 514.92334 166.666672 533.333374 L 166.666672 586.193359 L 276.429657 476.429993 C 289.447327 463.41333 310.552673 463.41333 323.570343 476.429993 Z M 476.429993 476.429993 C 489.446686 463.41333 510.553314 463.41333 523.570007 476.429993 L 633.333313 586.193359 L 633.333313 533.333374 C 633.333313 514.92334 648.256714 500 666.666687 500 C 685.07666 500 700 514.92334 700 533.333374 L 700 666.666687 C 700 685.07666 685.07666 700 666.666687 700 L 533.333313 700 C 514.92334 700 500 685.07666 500 666.666687 C 500 648.256714 514.92334 633.333313 533.333313 633.333313 L 586.193359 633.333313 L 476.429993 523.570007 C 463.41333 510.553314 463.41333 489.446686 476.429993 476.429993 Z"/>
</svg>
